<svg width="60" height="60" viewBox="0 0 60 60" fill="none" xmlns="http://www.w3.org/2000/svg">
<circle cx="30" cy="30" r="30" fill="black"/>
<g clip-path="url(#clip0_2_4)">
<path fill-rule="evenodd" clip-rule="evenodd" d="M10.8701 23.5355C10.9159 23.5106 10.9631 23.4877 11.0114 23.467L28.6207 15.4628C29.497 15.0644 30.503 15.0644 31.3793 15.4628L49.023 23.4826C50.3257 24.0747 50.3257 25.925 49.023 26.5172L31.3793 34.537C30.503 34.9353 29.497 34.9353 28.6207 34.537L13.3333 27.5882V32.4998C13.3333 33.4203 12.5871 34.1665 11.6667 34.1665C10.7462 34.1665 10 33.4203 10 32.4998V24.9999C10 24.974 10.0006 24.9482 10.0018 24.9225C10.0264 24.3728 10.3159 23.8335 10.8701 23.5355ZM43.3333 32.4367V36.2067C43.3333 36.8325 43.1572 37.4458 42.8248 37.9763C40.2378 42.1055 35.8888 44.1665 30 44.1665C24.1112 44.1665 19.7622 42.1055 17.1753 37.9765C16.843 37.4462 16.6668 36.833 16.6667 36.2068V32.4367L28.6207 37.8703C29.497 38.2687 30.503 38.2687 31.3793 37.8703L43.3333 32.4367Z" fill="white"/>
</g>
<defs>
<clipPath id="clip0_2_4">
<rect width="40" height="40" fill="white" transform="translate(10 10)"/>
</clipPath>
</defs>
</svg>
